<svg height="41" width="405" xmlns="http://www.w3.org/2000/svg"><g fill="none" fill-rule="evenodd"><path d="M303 9a6 6 0 0 1 6 6v9a6 6 0 0 1-6 6h-7v8h-7V9zm-2 13v-5h-4v5z" fill="#49804f" fill-rule="nonzero"/><path d="M89 9H73v15a6 6 0 0 0 6 6h16V14.9A6 6 0 0 0 89 9z" fill="#49804f"/><path d="M79 28a4 4 0 0 1-4-4V11h14a4 4 0 0 1 4 3.9V28z" fill="#fff"/><path d="M121 9H97v21h8V17h3v13h8V17h3v13h8V14.9a6 6 0 0 0-6-5.9z" fill="#49804f"/><path d="M121 28V15h-7v13h-4V15h-7v13h-4V11h22a4 4 0 0 1 4 3.9V28z" fill="#fff"/><path d="M234.3 9H224.7l-.4.6-4.6 8.3-4.7-8.3-.4-.6H205l1 1.8 10.4 18.6.4.6h5.7l.4-.6 10.4-18.6z" fill="#49804f"/><path d="M218 28l-9.6-17h5l6.3 11 6.2-11h5l-9.5 17z" fill="#fff"/><path d="M382 9h-16v21h8V17h6v13h8V14.9a6 6 0 0 0-6-5.9z" fill="#49804f"/><path d="M382 28V15h-10v13h-4V11h14a4 4 0 0 1 4 3.9V28z" fill="#fff"/><path d="M398 4h-8v20a6 6 0 0 0 5.8 6h9.2v-8h-7v-5h5V9h-5z" fill="#49804f"/><path d="M395.8 28a4 4 0 0 1-3.8-4V6h4v5h5v4h-5v9h7v4z" fill="#fff"/><path d="M144.8 9h-10.6a5.2 5.2 0 0 0-5.2 5.2v10.6c0 2.9 2.3 5.2 5.2 5.2H150V14.2c0-2.8-2.3-5.2-5.2-5.2z" fill="#49804f"/><path d="M134.2 28a3.2 3.2 0 0 1-3.2-3.2V14.2c0-1.8 1.4-3.2 3.2-3.2h10.6c1.8 0 3.2 1.5 3.2 3.2V28z" fill="#fff"/><g fill="#49804f"><path d="M75 15h14v2H75zM79 22h10v2H79zM135 22h13v2h-13zM135 15h9v2h-9zM205 14.2c0-2.8-2.4-5.2-5.3-5.2h-10.5a5.2 5.2 0 0 0-5.2 5.2v10.6c0 2.9 2.3 5.2 5.2 5.2H205z"/></g><path d="M186 24.8V14.2c0-1.8 1.4-3.2 3.2-3.2h10.6c1.8 0 3.2 1.5 3.2 3.2V28h-13.8a3.2 3.2 0 0 1-3.2-3.2z" fill="#fff"/><path d="M190 22h13v2h-13zM190 15h9v2h-9zM364 14.2c0-2.8-2.4-5.2-5.3-5.2h-10.5a5.2 5.2 0 0 0-5.2 5.2v10.6c0 2.9 2.3 5.2 5.2 5.2H364z" fill="#49804f"/><path d="M345 24.8V14.2c0-1.8 1.4-3.2 3.2-3.2h10.6c1.8 0 3.2 1.5 3.2 3.2V28h-13.8a3.2 3.2 0 0 1-3.2-3.2z" fill="#fff"/><path d="M349 22h13v2h-13zM349 15h9v2h-9zM255 14.2c0-2.8-2.4-5.2-5.3-5.2h-10.5a5.2 5.2 0 0 0-5.2 5.2v10.6c0 2.9 2.3 5.2 5.2 5.2H255z" fill="#49804f"/><path d="M236 24.8V14.2c0-1.8 1.4-3.2 3.2-3.2h10.6c1.8 0 3.2 1.5 3.2 3.2V28h-13.8a3.2 3.2 0 0 1-3.2-3.2z" fill="#fff"/><path d="M240 22h13v2h-13zM240 15h9v2h-9zM63 16v5h-4v-8h12V4H56a6.2 6.2 0 0 0-6 6v14a6 6 0 0 0 6 6h15V16z" fill="#49804f"/><path d="M56 28a4 4 0 0 1-4-4V10a4 4 0 0 1 4-4h13v5H57v12h8v-5h4v10z" fill="#fff"/><path d="M257 4h8v26h-8z" fill="#49804f"/><path d="M259 6h4v22h-4z" fill="#fff"/><path d="M335 9h-24v21h8V17h3v13h8V17h3v13h8V14.9a6 6 0 0 0-6-5.9z" fill="#49804f"/><path d="M335 28V15h-7v13h-4V15h-7v13h-4V11h22a4 4 0 0 1 4 3.9V28z" fill="#fff"/><path d="M159 4h17a6 6 0 0 1 6 6v14a6 6 0 0 1-6 6h-17zm14 17v-8h-5v8z" fill="#49804f" fill-rule="nonzero"/><path d="M161 6h15a4 4 0 0 1 4 4v14a4 4 0 0 1-4 4h-15zm14 17V11h-9v12z" fill="#fff" fill-rule="nonzero"/><path d="M281 9a6 6 0 0 1 6 5.9V24a6 6 0 0 1-6 5.9h-8a6 6 0 0 1-6-6v-9a6 6 0 0 1 6-6zm-2 13v-5h-4v5z" fill="#49804f" fill-rule="nonzero"/><path d="M281 11a4 4 0 0 1 4 3.9V24a4 4 0 0 1-4 3.9h-8a4 4 0 0 1-4-4v-9a4 4 0 0 1 4-4zm0 13v-9h-8v9zm22-13a4 4 0 0 1 4 4v9a4 4 0 0 1-4 4h-9v8h-3V11zm0 13v-9h-8v9z" fill="#fff" fill-rule="nonzero"/><path d="M0 6.5V5l10-5 10 5v1.5l-10 5z" fill="#f90c00"/><path d="M11 25.5V24l10-5 10 5v1.5l-10 5z" fill="#1c38b7"/><path d="M22 6.5V5l10-5 10 5v1.5l-10 5z" fill="#4fd925"/><path d="M20 5v12l-10 5V10z" fill="#f10c00"/><path d="M31 24v12l-10 5V29z" fill="#1830a9"/><path d="M42 5v12l-10 5V10z" fill="#43ca27"/><path d="M0 5v12l10 5V10z" fill="#bb0b00"/><path d="M11 24v12l10 5V29z" fill="#141e6f"/><path d="M22 5v12l10 5V10z" fill="#208b23"/></g></svg>