<?xml version="1.0" encoding="utf-8"?>
<!-- Generator: Adobe Illustrator 17.0.0, SVG Export Plug-In . SVG Version: 6.00 Build 0)  -->
<!DOCTYPE svg PUBLIC "-//W3C//DTD SVG 1.1//EN" "http://www.w3.org/Graphics/SVG/1.1/DTD/svg11.dtd">
<svg version="1.1" xmlns="http://www.w3.org/2000/svg" xmlns:xlink="http://www.w3.org/1999/xlink" x="0px" y="0px"
	 width="68.562px" height="90.375px" viewBox="0 0 68.562 90.375" enable-background="new 0 0 68.562 90.375" xml:space="preserve">
<g id="Layer_1">
</g>
<g id="Layer_2">
	<g>
		<g>
			<g>
				<path fill="#56544D" d="M64.097,0.438H4.528c-2.259,0-4.091,1.806-4.091,4.034v81.557c0,2.228,1.831,4.034,4.091,4.034h46.534
					l17.125-17.375V4.471C68.188,2.243,66.356,0.438,64.097,0.438z"/>
				<polygon fill="#E0E0DF" points="68.188,72.688 51.062,72.688 51.062,90.062 				"/>
				<polygon fill="#383732" points="51.062,72.812 33.938,89.938 51.062,89.938 				"/>
			</g>
			<g>
				<rect x="12.188" y="16.75" fill="#797464" width="44.25" height="5.125"/>
				<rect x="12.188" y="29.75" fill="#797464" width="44.25" height="5.125"/>
				<rect x="12.188" y="42.188" fill="#797464" width="44.25" height="5.125"/>
				<rect x="12.188" y="54.938" fill="#797464" width="21.625" height="5.125"/>
			</g>
		</g>
		<path fill="#FFD02D" d="M40.434,47.188c0,3.381-2.741,6.122-6.122,6.122l0,0c-3.381,0-6.122-2.741-6.122-6.122V26.637
			c0-3.381,2.741-6.122,6.122-6.122l0,0c3.381,0,6.122,2.741,6.122,6.122V47.188z"/>
		<circle fill="#FFD02D" cx="34.062" cy="64.063" r="5.947"/>
	</g>
</g>
</svg>
