<?xml version="1.0" encoding="utf-8"?>
<!-- Generator: Adobe Illustrator 17.1.0, SVG Export Plug-In . SVG Version: 6.00 Build 0)  -->
<!DOCTYPE svg PUBLIC "-//W3C//DTD SVG 1.1//EN" "http://www.w3.org/Graphics/SVG/1.1/DTD/svg11.dtd">
<svg version="1.1" id="Layer_1" xmlns="http://www.w3.org/2000/svg" xmlns:xlink="http://www.w3.org/1999/xlink" x="0px" y="0px"
	 viewBox="0 0 400 143" enable-background="new 0 0 400 143" xml:space="preserve">
<g>
	<path fill="#FF6633" d="M80,135.8c-4.6,2.1-14.9,5.7-27.7,5.7c-29.2,0-48.2-19.9-48.2-49.6C4.1,62,24.5,40.3,56,40.3
		c10.4,0,19.6,2.6,24.3,5.2l-4,13.3c-4.1-2.1-10.9-4.6-20.4-4.6c-22.2,0-34.1,16.5-34.1,36.7c0,22.4,14.4,36.1,33.5,36.1
		c10,0,16.5-2.4,21.6-4.6L80,135.8z"/>
	<path fill="#99CC66" d="M239.4,78.9v12.9h-49.3V78.9H239.4z"/>
	<path fill="#99CC66" d="M270.5,25.7H270L247.4,38L244,24.7l28.3-15.2h15v130h-17V25.7H270.5z"/>
	<path fill="#99CC66" d="M313.4,139.2v-10.7l13.8-13.3c33.2-31.7,48.4-48.5,48.4-68.1c0-13.2-6.1-25.4-25.6-25.4
		c-11.8,0-21.6,6-27.6,11l-5.7-12.4c8.7-7.3,21.7-13.2,36.7-13.2c27.7,0,39.5,19.1,39.5,37.8c0,24-17.5,43.3-44.7,69.8l-10.3,9.6
		v0.5h58.2v14.5h-82.8V139.2z"/>
	<path fill="#009966" d="M189,125.9c1.2-2,2-4.1,2.3-6.1c0,0-34.3-47.3-70.4-51.9c0.5-0.2,1.5-0.6,1.5-0.6
		c28.3-7,53.6-31.2,58.9-41.8c0.2-0.5-0.9-2.9-0.9-3.4c-9.2,12.2-19.8,27.1-51.3,42.1c30.3-15.2,50.5-45.9,50.5-45.9
		s-0.5-1.5-1.7-3.8c-3.8,5.8-12.7,17.6-30.6,32.6c15.8-15.8,26-29.9,29.4-34.8c-2-3.1-5.2-6.9-10.3-10.3
		c-9.6,15.6-34,43.3-50.5,55.6v21.3c16.2,11.5,34,28.9,53.7,62.6c4.6-1.8,11.2-6.1,15.8-11.2c-4.6-11.9-21.4-33.5-36.6-47.3
		C167.3,93.9,179.1,109.9,189,125.9z"/>
	<polygon fill="#99CC66" points="112.7,69.5 112.7,4.4 95.2,4.4 95.2,139.2 112.7,139.2 112.7,87.9 	"/>
</g>
</svg>
