<?xml version="1.0" encoding="utf-8"?>
<!DOCTYPE svg PUBLIC "-//W3C//DTD SVG 1.1//EN" "http://www.w3.org/Graphics/SVG/1.1/DTD/svg11.dtd">
<svg version="1.1" id="Layer_1" xmlns="http://www.w3.org/2000/svg" xmlns:xlink="http://www.w3.org/1999/xlink" x="0px" y="0px"
	 width="240px" height="40px" viewBox="0 0 250 40" style="enable-background:new 0 0 250 40;" enable-background="new 0 0 250 40" xml:space="preserve">
<g>
	<path fill="#EB7E74" d="M14.409,31v-8.314c0-2.047-1.071-3.905-3.181-3.905c-2.079,0-3.307,1.858-3.307,3.905V31H4.079V15.442
		h3.559l0.284,1.89c0.819-1.575,2.614-2.142,4.094-2.142c1.858,0,3.716,0.756,4.598,2.897c1.386-2.205,3.181-2.834,5.197-2.834
		c4.409,0,6.582,2.708,6.582,7.37V31H24.55v-8.377c0-2.048-0.85-3.78-2.929-3.78c-2.078,0-3.37,1.795-3.37,3.842V31H14.409z"/>
	<path fill="#EB7E74" d="M44.584,15.474h3.685V31h-3.622l-0.189-2.268c-0.882,1.826-3.307,2.709-5.039,2.74
		c-4.598,0.031-7.999-2.803-7.999-8.252c0-5.354,3.559-8.157,8.094-8.125c2.079,0,4.062,0.976,4.944,2.52L44.584,15.474z
		 M35.262,23.221c0,2.961,2.047,4.725,4.599,4.725c6.047,0,6.047-9.417,0-9.417C37.31,18.528,35.262,20.261,35.262,23.221z"/>
	<path fill="#EB7E74" d="M56.272,8.985v12.724l5.228-6.235h4.598v0.22l-6.331,7.086l7.212,7.937V31h-4.629l-6.079-7.023V31H52.43
		V8.985H56.272z"/>
	<path fill="#EB7E74" d="M71.235,24.606c0.252,1.921,1.921,3.308,4.63,3.308c1.417,0,3.275-0.536,4.157-1.449l2.457,2.425
		c-1.638,1.701-4.315,2.52-6.677,2.52c-5.354,0-8.535-3.307-8.535-8.282c0-4.725,3.212-8.126,8.251-8.126
		c5.197,0,8.44,3.212,7.842,9.605H71.235z M79.675,21.426c-0.252-2.016-1.826-3.023-4.031-3.023c-2.078,0-3.779,1.008-4.346,3.023
		H79.675z"/>
	<path fill="#FEE58B" d="M92.056,11.096v4.409h4.283v3.307h-4.315v6.708c0,1.48,0.819,2.205,2.016,2.205
		c0.598,0,1.292-0.189,1.858-0.473l1.071,3.275c-1.103,0.441-2.016,0.63-3.181,0.662c-3.37,0.125-5.575-1.796-5.575-5.67v-6.708
		h-2.897v-3.307h2.897v-4L92.056,11.096z"/>
	<path fill="#FEE58B" d="M102.609,24.606c0.252,1.921,1.921,3.308,4.629,3.308c1.417,0,3.275-0.536,4.157-1.449l2.457,2.425
		c-1.638,1.701-4.314,2.52-6.677,2.52c-5.354,0-8.535-3.307-8.535-8.282c0-4.725,3.213-8.126,8.252-8.126
		c5.196,0,8.44,3.212,7.842,9.605H102.609z M111.049,21.426c-0.252-2.016-1.827-3.023-4.031-3.023c-2.079,0-3.779,1.008-4.347,3.023
		H111.049z"/>
	<path fill="#FEE58B" d="M131.178,29.016c-1.795,1.764-3.686,2.457-5.984,2.457c-4.504,0-8.252-2.709-8.252-8.221
		c0-5.511,3.748-8.22,8.252-8.22c2.205,0,3.906,0.63,5.605,2.299l-2.424,2.551c-0.914-0.819-2.047-1.229-3.119-1.229
		c-2.582,0-4.472,1.89-4.472,4.598c0,2.961,2.016,4.535,4.409,4.535c1.228,0,2.457-0.346,3.402-1.291L131.178,29.016z"/>
	<path fill="#FEE58B" d="M137.637,8.954v8.629c1.385-1.795,3.086-2.331,4.85-2.331c4.41,0,6.361,2.992,6.361,7.559V31h-3.842v-8.157
		c0-2.834-1.48-4.031-3.527-4.031c-2.268,0-3.842,1.921-3.842,4.252V31h-3.842V8.954H137.637z"/>
	<path fill="#AAD279" d="M155.844,24.606c0.252,1.921,1.92,3.308,4.629,3.308c1.418,0,3.275-0.536,4.158-1.449l2.455,2.425
		c-1.637,1.701-4.314,2.52-6.676,2.52c-5.354,0-8.535-3.307-8.535-8.282c0-4.725,3.213-8.126,8.252-8.126
		c5.195,0,8.439,3.212,7.842,9.605H155.844z M164.283,21.426c-0.252-2.016-1.826-3.023-4.031-3.023
		c-2.078,0-3.779,1.008-4.346,3.023H164.283z"/>
	<path fill="#AAD279" d="M183.342,15.474h3.684V31h-3.621l-0.189-2.268c-0.881,1.826-3.307,2.709-5.039,2.74
		c-4.598,0.031-8-2.803-8-8.252c0-5.354,3.561-8.157,8.096-8.125c2.078,0,4.062,0.976,4.943,2.52L183.342,15.474z M174.02,23.221
		c0,2.961,2.047,4.725,4.598,4.725c6.047,0,6.047-9.417,0-9.417C176.066,18.528,174.02,20.261,174.02,23.221z"/>
	<path fill="#AAD279" d="M200.949,19.599c-1.102-1.04-2.361-1.386-3.842-1.386c-1.826,0-2.834,0.567-2.834,1.543
		c0,1.008,0.912,1.574,2.896,1.7c2.93,0.189,6.646,0.851,6.646,4.977c0,2.74-2.236,5.102-6.678,5.102
		c-2.457,0-4.912-0.409-7.18-2.771l1.889-2.74c1.48,1.544,3.623,2.143,5.354,2.174c1.449,0.031,2.805-0.567,2.805-1.701
		c0-1.07-0.883-1.669-3.088-1.795c-2.928-0.221-6.424-1.291-6.424-4.818c0-3.591,3.717-4.851,6.551-4.851
		c2.424,0,4.252,0.473,6.047,2.047L200.949,19.599z"/>
	<path fill="#AAD279" d="M211.031,11.096c0,2.992-4.535,2.992-4.535,0S211.031,8.104,211.031,11.096z M206.842,15.41V31h3.842V15.41
		H206.842z"/>
	<path fill="#AAD279" d="M217.898,24.606c0.252,1.921,1.92,3.308,4.629,3.308c1.418,0,3.275-0.536,4.158-1.449l2.455,2.425
		c-1.637,1.701-4.314,2.52-6.676,2.52c-5.354,0-8.535-3.307-8.535-8.282c0-4.725,3.213-8.126,8.252-8.126
		c5.195,0,8.439,3.212,7.842,9.605H217.898z M226.338,21.426c-0.252-2.016-1.826-3.023-4.031-3.023
		c-2.078,0-3.779,1.008-4.346,3.023H226.338z"/>
	<path fill="#AAD279" d="M236.703,15.474l0.283,1.795c1.197-1.921,2.803-2.205,4.377-2.205c1.607,0,3.15,0.63,4,1.48l-1.732,3.339
		c-0.787-0.662-1.512-1.008-2.771-1.008c-2.016,0-3.873,1.07-3.873,3.937V31h-3.842V15.474H236.703z"/>
</g>
</svg>
