<svg height="283.44" viewBox="0 0 283.44 283.44" width="283.44" xmlns="http://www.w3.org/2000/svg"><path d="M257.28 161.16c-1.024.648-2.046 1.298-3.88 2.462l2.01-.736c-14.367 9.14-29.137 17.625-41.595 26.51 17.58-8.838 37.033-17.776 57.177-25.17-31.348 13.684-61.97 28.826-91.936 45.333 26.74-11.783 53.566-23.352 81.758-32.18-4.024 1.78-7.766 3.543-11.592 5.096-3.88 1.575-7.832 2.976-11.774 4.394-19.703 7.088-38.63 16.043-57.938 24.076-6.074 2.527-12.216 4.838-18.124 7.815-7.436 3.747-14.043 1.175-20.214-3.756-18.643-14.894-36.904-30.27-56.36-44.14-16.085-11.47-31.945-23.254-47.867-34.95-7.585-5.573-6.99-14.737 1.534-19.016 14.443-7.25 27.56-16.2 38.15-28.5 4.08-4.74 8.463-3.496 13.223-1.708 13.726 5.156 27.488 10.213 41.228 15.332 14.694 5.474 29.524 10.616 44.023 16.563 15.08 6.186 29.842 13.152 44.734 19.796 4.48 2 9.042 3.852 13.362 6.157 3.308 1.765 5.79 4.463 5.613 8.682.455.176.847.328 1.337.52l-1.127.814.227 3.33c2.923-1.237 5.28-3.633 8.76-3.242l-8.724 4.065c-.07 1.08-.157 2.386-.263 3.992 3.608-3.112 7.72-4.94 12.1-6.438l-12.283 7.77-.4 3.052c5.145-2.457 9.55-5.975 15.097-7.852l.537.328c-4.71 4.252-10.585 6.42-15.753 9.516-.453 1.093-.86 2.075-1.26 3.032 7.237-2.67 13.244-7.697 20.22-10.95zm-20.58-2.308c.704-6.18-1.262-10.265-6.13-12.91-5.357-2.913-10.897-5.444-16.362-8.13-14.288-7.023-28.863-13.363-43.668-19.175-11.44-4.49-22.985-8.716-34.48-13.064-16.48-6.233-32.98-12.417-49.42-18.75-3.165-1.22-5.64-.863-8.032 1.51-4.71 4.67-9.3 9.5-14.324 13.815-7.718 6.627-16.857 11.1-25.712 15.973-7.05 3.88-7.61 11.812-1.258 16.382 16.243 11.688 32.468 23.403 48.664 35.157 7.17 5.203 14.32 10.444 21.353 15.83 4.66 3.568 9.018 7.525 13.65 11.126 7.16 5.564 14.49 10.903 21.644 16.472 5.01 3.9 10.358 7.134 16.675 3.985 10.45-5.21 20.787-10.702 30.867-16.596 11.62-6.794 22.724-14.477 34.405-21.16 8.488-4.854 13.843-10.876 12.127-20.465z"/><path d="M139.918 175.532c.366-.15 1.04-.43 1.916-.792 2.27-3.62 6.704-5.108 10.31-5.1 3.527.006 6.833 3.416 9.885 5.866 3.165 2.542 7.11 4.026 9.516 7.48l1.803-1.152-1.937-6.254c-3.258-1.712-6.24-4.187-9.272-6.605-1.414.856-1.635 3.318-4.083 3.285 1.11-3.744 8.754-9.2 10.922-8.258l3.687-3.026c-.05-.448-.09-.793-.128-1.116 2.554-1.84 5.04-3.696 7.617-5.42.392-.262 1.303-.107 1.785.178 5.527 3.264 11.018 6.59 16.512 9.908.154.093.236.305.293.38-13.37 14.18-32.584 20.072-47.38 33.368-7.016-4.704-14.526-9.74-22.036-14.773C110.51 171 93.606 155.71 73.798 144.85l-.197-1.386-1.328-.208-31.157-20.362c2.644-3.57 6.35-4.746 10.266-6.19 2.473 2.066 6.057 3.12 7.492 6.82 2.32-1.034 3.43 1.16 5.08 2.004v-1.072c.466-.02.843-.038 1.214-.056.41-.994.826-1.985 1.377-3.298l-6.987-4.402c-1.355.746-1.39 3.12-3.604 2.762.37-2.873 5.983-6.01 9.823-5.57.32-3.975 4.51-4.134 6.47-6.668l2.068.428c1.053-1.83.34-4.325 3.05-5.968 2.368-1.437 3.69-1.014 5.73-.056 17.177 8.066 34.126 16.583 51.012 25.243 11.048 5.665 21.04 13.07 32.037 18.787 2.036 1.06 4.088 2.084 6.436 3.278.47 1.53 3.308 1.4 3.563 3.892-4.086 2.466-7.027 6.637-12.206 7.817l-1.57-.96-.18.212 1.712 1.514c.205 1.527-9.33 7.31-11.578 7.054-1.795-2.165-4.213-3.29-6.894-4.876 1.505 1.697 3.443 2.326 4.138 4.11-.953 1.862-3.014 3.204-9.246 5.965l-65.262-41.718-.275.436 4.726 3.13 1.015 3.298 1.828-.874c19.058 12.445 38.214 24.956 57.57 37.598zm-61.158-34.44l49.734 34.038 5.47-2.123L82.36 139.66c-1.025.408-2.093.833-3.6 1.43zm49.15 35.24l-50.533-34.354-1.71 1.995c18.594 10.77 34.815 24.55 52.242 37.09v-4.73zm28.728-34.456l-5.986 3.72c4.28 2.71 8.44 5.35 12.53 7.94l7.073-4.462-13.617-7.198zm27.698 24.908c2.683-1.016 4.678-2.977 6.867-5.066l-10.327-5.712c-1.953 1.313-3.995 2.468-5.396 4.405l8.856 6.374zm-32.96 15.547c2.91 2.62 6.122 4.776 9.626 6.254l.41-4.99c-5.618-2.966-11.246-6.055-16.293-10.413l-2.373 2.75c2.31 2.297 5.82 3.424 7.223 6.772l1.406-.37zm15.387-2.2l-14.914-9.605c-1.563.78-3.002 1.5-4.517 2.26 4.478 3.893 9.62 6.523 14.38 9.766 1.683-.77 3.63-.976 5.05-2.42zm-16.944-33.537l-2.118 3.854 9.136 5.977c2.693-.03 4.27 1.945 6.52 2.37l.383-3.774c-4.67-2.83-9.24-5.594-13.92-8.427zm20.36 18.236l14.427 9.553c.24-4.6-4.518-10.336-10.6-12.582-.968 1.277-2.174 2.295-3.827 3.03zm-11.67-6.052l-10.064-6.124-4.994 3.513 8.97 6.082 6.088-3.472zm-10.892-22.893l-8.876-5.152-5.118 4.603 7.662 4.37 6.332-3.82zm-46.135.41l-4.582-2.76-3.93 2.408 12.342 8.396 3.9-3.386-6.195-3.768c-1.494.81-2.52 2.254-4.463 2.275.39-1.695 1.833-2.13 2.93-3.166zm76.188 35.303l-10.094-6.602-4.23 3.108 8.373 6.39 5.95-2.896zm-49.127-46.113l-4.338 4.416c2.645 1.495 5.313 3 8.128 4.59l4.765-4.64c-3.08-1.57-5.81-2.964-8.555-4.365zm57.613 48.13c3.465-2.895 7.664-4.733 10.47-8.372-1.378-.85-2.757-1.698-4.106-2.528-2.497 1.97-4.327 4.642-7.673 5.224.274 1.935.148 3.837 1.31 5.676zm-66.67-52.97c-1.68 1.225-3.29 2.402-4.964 3.624 2.83 1.64 5.578 3.23 8.343 4.833l4.608-4.244-7.986-4.216zm29.895 24.02c2.1-1.223 4.086-2.382 6.23-3.633l-6.705-4.32-6.49 3.953 6.966 4zm-22.202 7.92l-7.848-5.475-4.146 3.934 7.984 5.26c1.34-1.24 2.618-2.427 4.01-3.72zm-11.626-20.85l-8.51-4.636c-1.394 1.206-2.73 2.36-4.148 3.59l7.85 4.497 4.808-3.452zm29.38 32.95c-2.762-1.893-5.413-3.707-8.065-5.523l-4.383 3.012 6.907 5.28 5.543-2.77zm-20.638-27.595l-7.227-4.614-4.973 3.46 7.997 4.724c1.47-1.25 2.77-2.352 4.204-3.57zm-17.664 8.054l7.188 4.892 4.38-3.874c-2.724-1.63-5.24-3.14-7.643-4.577-1.38 1.25-2.59 2.347-3.925 3.56zm22.497 1.37c1.537-1.038 2.983-2.013 4.56-3.08-1.2-.79-2.288-1.504-3.347-2.2l-1.287.132-.15-1.13-3.23-2.11c-1.498 1.11-2.608 2.676-4.54 3.11 2.69 1.778 5.337 3.525 7.994 5.278zM113.73 123.94c1.042-1.84 2.84-2.653 4.417-3.973l-7.78-3.778c-1.583 1.134-3.058 2.19-4.61 3.304l7.973 4.447zm65.368 48.735c-2.044.962-4.01 1.89-6.014 2.832.55 1.85 1.07 3.59 1.632 5.475l8.834-5.57-4.452-2.737zm-54.457-15.42l6.487 4.204c1.517-1.2 2.88-2.276 4.34-3.428l-6.843-4.45-3.983 3.672zm-39.1-36.558c2.488 1.385 5.015 2.79 7.627 4.245l4.47-3.36-7.42-3.948c-1.575 1.03-3.1 2.03-4.677 3.063zm15.926 9.163l4.185-3.658c-2.378-1.366-4.667-2.68-6.9-3.96l-4.196 3.455c2.3 1.385 4.58 2.76 6.912 4.163zM88.77 116.78l-7.693-3.584-.146-.256-4.338 2.707 7.538 4.28 4.64-3.147zm53.406 38.663l4.97-3.867c-1.99-1.238-3.845-2.39-5.683-3.532l-5.026 3.965 5.74 3.433zm-11.274-15.364c2.464 1.542 4.838 3.03 7.312 4.58l1.982-4.174-7.596-4.295-1.698 3.89zm10.332 1.297l-1.863 3.894c2.454 1.49 4.825 2.93 7.275 4.416l2.192-3.903-7.603-4.406zm5.516 39.37c-2.074-1.452-3.988-2.794-5.977-4.188l-4.58 3.504c1.964 1.25 3.744 2.383 5.716 3.64l4.84-2.956zm-44.387-68.508l-4.09 3.13c2.223 1.208 4.32 2.346 6.313 3.43l4.667-3.17-6.89-3.39zm68.955 37.907l-5.83 3.662c-.14 1.98-.27 3.82-.407 5.728l9.247-7.203-3.01-2.188zm-35.792 1.107l5.02-3.712-5.422-3.248-4.89 3.21 5.292 3.75zm-13.5-17.22c2.56 1.725 5.08 3.422 7.66 5.158l1.782-3.772-8.348-4.706c-.377 1.146-.71 2.158-1.094 3.32zm7.416 47.535c3.084-1.67 5.9-3.196 8.835-4.784l-2.774-2.764-6.06 2.33v5.217zm-61.348-59.566l-2.034 3.367 7.507 4.557 1.722-3.442-7.196-4.48zm3.496 19.487l.753-3.47-6.973-4.7-3.62 1.462 9.84 6.71zm62.482 39l-2.563 2.444 8.488 5.74c.515-1.643.548-3.13.05-4.62l-5.976-3.564zm21.7 7.04c-1.708-1.29-3.316-2.508-4.954-3.748l-3.937 3.458c1.685 1.46 3.216 2.908 5.292 3.65l3.6-3.36zm-79.574-62.045l3.696-2.243-7.23-4.3-3.855 1.93c2.567 1.604 5.055 3.156 7.388 4.613zm65.674 34.22l10.836 7.028c.267-1.148.158-2.215-.3-3.152l-9.727-6.406-.808 2.53zm-41.288-25.354c2.82 1.7 5.54 3.338 8.4 5.06l1.61-2.886-8.584-4.918-1.426 2.745zm50.092 61.802v-4.195l-5.578-3.91-2.615 2.41c2.78 1.92 4.91 4.38 8.193 5.695zm-31.565-50.646c2.3 1.61 4.542 3.182 6.822 4.78l2.212-2.94c-2.54-1.678-4.986-3.29-7.518-4.963l-1.515 3.123zm-33.693-14.203l6.588 4.173 3.423-2.82c-2.14-1.26-4.292-2.53-6.36-3.75-1.22.8-2.35 1.542-3.65 2.397zm-18.964 1.066c2.34 1.686 4.577 3.3 6.72 4.846l4.668-1.58c-3.093-1.336-5.443-3.168-7.776-5.022-1.156.562-2.265 1.1-3.61 1.755zm13.01-20.187l-6.516-3.567-3.493 2.704c1.897 1.17 3.786 2.334 5.6 3.45l4.408-2.587zm33.776 16.76c2.612 1.458 5.088 2.838 7.662 4.273l1.09-3.184-7.7-4.47-1.053 3.382zm-29.33 1.414l3.777-2.303-6.193-3.802-4.25 1.946c2.33 1.452 4.517 2.817 6.666 4.16zm-1.844 4.527l1.34-3.26-6.91-4.333c-.592 1.192-1.12 2.25-1.674 3.364l7.244 4.23zm.312-27.318l-5.533-3.606-1.256 4.782 5.905 3.105.883-4.28zm1.21-.862L90.3 110.9c.687-1.693 2.474-1.667 3.666-2.776l-7.652-3.647c-.96.783-1.787 1.46-2.73 2.227zm20.96 17.537c2.45 1.383 4.795 2.705 7.263 4.096l1.044-3.474-7.42-4.128c-.31 1.22-.582 2.3-.887 3.507zm-57.926-3.914c3.1 2.17 6.01 5.25 9.823 1.372-1.57-1.04-3.25-2.157-4.923-3.267-1.79.224-3.4.85-4.9 1.896zm63.63 19.76l7.83 4.548 1.267-2.972-7.35-4.356c-.602.956-1.147 1.824-1.747 2.78zM97.08 116.142l-.85 3.357c2.433 1.357 4.784 2.67 7.24 4.042l1.037-3.368-7.427-4.032zm-13.934 7.787l7.928 4.87c.57-.97 1.062-1.812 1.594-2.72-2.812-1.553-5.522-3.05-8.307-4.586l-1.216 2.435zm6.718 15.65l1.398-2.947-6.71-4.282-1.37 3.31c2.178 1.277 4.334 2.54 6.682 3.92zm33.03 18.28l-8.513-5.66c-.55.835-1.066 1.613-1.57 2.377 3.11 1.78 6.137 3.51 9.242 5.285l.84-2.002zm-22.43-46.537c-1.786-.89-3.378-1.68-4.89-2.43l-4.335 2.56 5.652 3.066c1.164-1.043 2.31-2.068 3.573-3.197zm4.08 37.98l6.978 4.304 1.593-2.35-7.312-4.975-1.257 3.022zm-12.293-19.79c2.287 1.328 4.584 2.66 6.943 4.028l1.584-2.648-6.983-4.196-1.545 2.818zm75.593 51.57c-1.422 1.407-3.264 1.94-5.13 2.55-.07 1.33-.14 2.614-.22 4.075l7.745-3.894-2.395-2.73zm-77.677-68.796l-1.133 3.376 6.06 3.222 1.122-3.284-6.05-3.313zm-2.162 2.845l1.104-3.478-5.472-3.38-.806 4.332 5.174 2.526zm9.14 29.08l6.14 4.132c.43-1.045.8-1.955 1.195-2.92-2.16-1.417-4.238-2.783-6.414-4.213-.317 1.035-.607 1.977-.923 3zm42.118 24.198l-7.46-4.88c-.147.92-.264 1.66-.38 2.4l7.674 5.73.166-3.25zm15.017-2.23l8.284-4.287-3.365-1.75c-1.77 1.044-3.348 1.973-4.92 2.912v3.125zm-8.618-.356l-4.908 2.474v3.605l7.49-3.928-2.582-2.15zm-11.418-13.957l-4.988-3.543-2.082 2.842 5.637 3.767 1.434-3.066zM74.83 115.994c-2.285-1.358-4.472-2.66-6.75-4.013l-1.143 2.89c2.242 1.142 4.426 2.256 6.688 3.41l1.205-2.286zm-31.618 6.817c2.705 1.69 5.25 3.28 7.962 4.97l.38-2.877-6.353-3.758-1.988 1.666zm90.648 32.834l7.003 3.313.808-2.384-6.237-3.756-1.573 2.827zm-66.7-35.835c1.232-.48 2.446-.95 3.874-1.504l-6.438-3.446c-1.04.495-1.976.94-3.148 1.5 2.007 1.21 3.777 2.28 5.713 3.45zm15.92 1.016l-7.06-4.096-1.168 2.122 7.02 4.345c.415-.817.772-1.516 1.208-2.37zm65.907 62.852l-1.357-1.94c-1.82 1.18-3.575 2.32-5.407 3.51l-.308 3.513 7.072-5.082zM60.28 130.414l-4.597-3.158c-.722.79-1.322 1.443-1.937 2.115l6.053 4.052.48-3.008zm18.32 6.456l-4.783 1.613-.535 3.536c.628.11 1.09.193 1.628.29 1.294-1.306 2.25-3.107 4.48-3.088l-.79-2.352zM60.18 124.474l-2.82 2.027 3.092 2.65 4.345-1.522-4.617-3.154zm69.883 40.618l.514-2.285-6.324-4.073-.9 2.046c2.207 1.417 4.346 2.792 6.71 4.312zm22.32 27.563c-.05 1.033-.1 2.065-.155 3.243 2.116-2.487 4.378-4.53 7.138-6.215l-2.01-1.532c-1.677 1.52-3.32 3.01-4.974 4.505zM91.22 140.367l4.318 2.84 1.22-3.107-4.082-2.594c-.495.973-.94 1.85-1.456 2.86zm-11.437-38.965l-1.58 1.86 3.922 2.63 2.534-2.09-4.875-2.4zm-18.302 28.916v2.9c1.763-.463 3.35-1.005 4.53-2.395-.18-.64-.36-1.278-.555-1.962-1.357.5-2.617.96-3.975 1.458zm-4.602-7.47c-1.44.81-2.675 1.5-3.96 2.22l-.185 3.248c1.326-2.248 3.418-2.436 4.746-3.778l-.6-1.69zm12.898 6.41l-4.05-2.47c1.297.782 1.256 2.233 1.7 3.498l2.35-1.027zM171.008 138.006l-.137-1.355c-6.182-.692-10.4-5.092-17.998-7.577-3.113-1.58-8.288-4.203-13.394-6.793-.368-.78-.425-1.436.266-2.182-1.663 1.003-17.024-5.237-18.09-7.206 2.68-2.667 5.53-5.09 9.28-6.136 2.065 2.026 4.788 2.655 7.315 3.652 2.495.985 5.333 1.405 6.306 4.277 1.138.158 1.848-1.426 3.07-.218l-3.807 3.036c3.93 2.13 7.763 4.21 11.705 6.346v4.376c1.313-1.052 2.11-2.677 3.623-2.807l1.877-2.308-1.706-1.92-4.365 2.237c.177-2.15 1.663-2.503 3.208-3.126-3.834-1.57-7.588-2.906-10.524-5.76 5.18 2.058 10.45 3.935 14.672 7.784 3.862-1.822 12.382 1.7 16.877 6.848 5.87-1.71 9.24 3.15 13.652 5.02 1.753.744 3.223 2.157 4.9 3.32-.152.446-.163.96-.413 1.14-3.335 2.402-6.638 4.86-10.087 7.09-2.02 1.306-3.8-.39-5.398-1.247-3.755-2.013-7.326-4.363-10.837-6.494zm15.47.906l-10.597-5.283-3.884 3.31 13.538 8.187.943-6.215zm-4.265-9.248c-1.735.788-3.516 1.472-4.715 2.933l8.88 5.137 5.257-3.004-9.422-5.066zm-7.462-3.18c-3.374-1.54-6.544-2.984-9.74-4.442-1.29.958-2.486 1.85-3.89 2.894l8.507 5.46c1.674-1.28 3.283-2.507 5.124-3.912zm-34.413-4.887c4.53 2.3 9.473 3.578 13.69 6.936.11-1.642.19-2.864.275-4.178-3.843-1.842-7.635-3.66-11.452-5.488l-2.513 2.73zm29.277 9.903l-9.872-5.602-2.58 2.925 11.565 6.697c.34-1.546.605-2.745.887-4.02zm-46.038-18.182l13.866 5.792c-2.398-5.892-7.95-5.595-11.082-8.547l-2.784 2.755zm12.98 1.737l4.403-2.612c-3.772-1.107-7.27-2.362-10.648-4.268l-2.8 1.52 9.043 5.36zm56.253 20.91c-4.435 1.416-6.61 4.777-5.203 7.973 2.758-2.007 5.51-4.012 8.32-6.056l-3.118-1.918zm-17.012-8.488c-2.758 1.87-5.905 3.266-5.292 7.374 3.09-.726 5.22-2.962 7.65-4.833l-2.358-2.54zm-38.124-11.844l.308 3.67 5.623-3.577-1.86-2.443-4.07 2.35zM226.115 156.976c-3.6 3.742-7.154 7.53-10.808 11.22-12.94 13.057-28.278 22.733-44.41 31.256-3.31 1.748-6.77 3.208-10.155 4.815-2.374 1.127-4.482 2.51-4.88 5.45-.937-.82-.69-2.357.49-3.763 3.76-4.477 9.21-6.178 14.17-8.7 18.267-9.29 34.575-21.3 49.272-35.548 1.874-1.816 3.876-3.5 5.818-5.246.17.17.336.344.503.516zM200.342 152.693c3.106-5.47 8.546-7.472 12.957-10.656 3.698 3.028 9.012 3.708 10.503 9.23-2.96 3.424-6.504 6.458-10.64 8.79-.295.166-.87.14-1.16-.04-3.856-2.386-7.684-4.816-11.66-7.324zm1.863-.426l9.586 5.984.86-6.14-6.404-4.18c-1.292 1.386-2.61 2.8-4.04 4.337zm5.672-4.89c1.91 1.287 3.63 2.443 5.503 3.704 2.036-1.33 4.086-2.67 6.244-4.078-2.207-1.028-4.635-1.355-6.062-3.4l-5.685 3.775zm5.505 11.188l9.34-7.775-2.528-2.868-6.03 4.027c-.246 2.072-.493 4.163-.782 6.615zM102.028 95.06c3.168 2.277 7.947 2.168 9.928 6.452-5.304 4.353-8.953 4.152-15.808-.853l.237-1.768c-4.455 2.373-7.304-1.145-10.936-2.356 1.574-3.045 3.95-4.297 6.59-5.366l5.453 2.22c.644 1.12 1.176 2.045 1.8 3.134.862-.463 1.682-.902 2.735-1.465zm6.18 4.013l-5.86-2.79c-1.08.453-2.04.86-3.138 1.32 1.74.917 3.39 1.784 4.99 2.626l4.01-1.157zm-10.25-.675c-.22.676-.417 1.293-.623 1.933l7 3.1-.323-2.084-6.055-2.948zm-4.783-2.223l3.293-2.097-4.412-1.628-2.88 1.64 4 2.085zm17.12 5.166l-1.025-1.532-3.52 1.196c-.563.935-.442 1.81.117 2.744 1.45-.79 2.863-1.556 4.43-2.407zm-23.15-5.035l5.52 2.504.295-1.552-4.85-2.487c-.354.56-.625.993-.965 1.535zm9.86-1.286l-2.685 1.77-.394 1.738 4.185-1.833-1.104-1.676zM114.83 100.313l9.674 4.022 1.518 4.35c-2.322.162-3.84 1.23-5.142 2.678-.47.522-.973.6-1.606.29-3.003-1.47-6.008-2.94-9.03-4.37-1.486-.704-1.936-1.486-.466-2.695 1.715-1.41 3.392-2.868 5.05-4.275zm-5.005 5.867c3.455.188 5.847 2.526 8.98 3.375.09-.713.17-1.36.26-2.054l-7.06-3.813c-.772.885-1.365 1.56-2.18 2.493zm3.837-3.168l6.015 3.692 2.62-2.147c-2.364-.983-4.664-1.94-6.977-2.9l-1.658 1.355zm9.682 2.24l-3.283 2.704c-.144.66-.317 1.443-.606 2.757 1.428-1.885 3.214-2.277 4.74-3.204l-.85-2.257z"/></svg>
