<?xml version="1.0" encoding="UTF-8" standalone="no"?>
<svg width="36px" height="36px" viewBox="0 0 36 36" version="1.1" xmlns="http://www.w3.org/2000/svg" xmlns:xlink="http://www.w3.org/1999/xlink" xmlns:sketch="http://www.bohemiancoding.com/sketch/ns">
    <!-- Generator: Sketch 3.4.4 (17249) - http://www.bohemiancoding.com/sketch -->
    <title>game development</title>
    <desc>Created with Sketch.</desc>
    <defs></defs>
    <g id="-Assets" stroke="none" stroke-width="1" fill="none" fill-rule="evenodd" sketch:type="MSPage">
        <g id="Desktop-HD" sketch:type="MSArtboardGroup" transform="translate(-468.000000, -784.000000)">
            <g id="CATEGORY-ICONS" sketch:type="MSLayerGroup" transform="translate(206.000000, 711.000000)">
                <g id="game-development" transform="translate(262.000000, 73.000000)" sketch:type="MSShapeGroup">
                    <g id="Oval-175-+-Icon/Code-Copy-8" fill="#71C03E">
                        <path d="M18,36 C27.9411255,36 36,27.9411255 36,18 C36,8.0588745 27.9411255,0 18,0 C8.0588745,0 0,8.0588745 0,18 C0,27.9411255 8.0588745,36 18,36 Z" id="Oval-175"></path>
                    </g>
                    <path d="M27.4493333,17.1756667 L27.4493333,15.1483333 L25.4013333,15.1483333 L25.4013333,13.0546667 L23.3503333,13.0546667 L23.3503333,11.0506667 L25.396,11.0506667 L25.396,9 L23.3453333,9 L23.3453333,11.0506667 L21.2996667,11.0506667 L21.2996667,13.1016667 L15.198,13.1016667 L15.198,11.0506667 L13.1523333,11.0506667 L13.1523333,9 L11.103,9 L11.103,11.0506667 L13.1486667,11.0506667 L13.1486667,13.0546667 L11.0976667,13.0546667 L11.0976667,15.1483333 L9.04966667,15.1483333 L9.04966667,17.1756667 L7,17.1756667 L7,23.3266667 L9.051,23.3266667 L9.051,19.2266667 L11.099,19.2266667 L11.099,23.3266667 L13.1433333,23.3266667 L13.1433333,25.3763333 L17.2436667,25.3763333 L17.2436667,23.3266667 L13.1473333,23.3266667 L13.1473333,21.276 L23.3503333,21.276 L23.3503333,23.3266667 L19.2553333,23.3266667 L19.2553333,25.3763333 L23.3556667,25.3763333 L23.3556667,23.3266667 L25.4,23.3266667 L25.4,19.2266667 L27.448,19.2266667 L27.448,23.3266667 L29.4986667,23.3266667 L29.4986667,17.1756667 L27.4493333,17.1756667 Z M15.1916667,17.1756667 L13.1513333,17.1756667 L13.1513333,15.151 L15.1916667,15.151 L15.1916667,17.1756667 Z M23.3476667,17.1756667 L21.3073333,17.1756667 L21.3073333,15.151 L23.3476667,15.151 L23.3476667,17.1756667 Z" id="Page-1" fill="#FFFFFF"></path>
                </g>
            </g>
        </g>
    </g>
</svg>